<svg id="Layer_1" fill="#fff" enable-background="new 0 0 512 512" height="512" viewBox="0 0 512 512" width="512" xmlns="http://www.w3.org/2000/svg"><path d="m391 120c-33.084 0-60-26.916-60-60s26.916-60 60-60 60 26.916 60 60-26.916 60-60 60zm0-80c-11.028 0-20 8.972-20 20s8.972 20 20 20 20-8.972 20-20-8.972-20-20-20zm-20 306h-40v166h40zm-258-127c-33.084 0-60-26.916-60-60s26.916-60 60-60 60 26.916 60 60-26.916 60-60 60zm0-80c-11.028 0-20 8.972-20 20s8.972 20 20 20 20-8.972 20-20-8.972-20-20-20zm60 234h-40v139h40zm278-7h38v-167c0-33.084-26.916-60-60-60h-77.612c-31.643 0-59.451 21.35-67.625 51.918l-32.353 120.998-73.221-58.577c-12.364-9.892-27.894-15.339-43.728-15.339h-51.461c-33.084 0-60 26.916-60 60v115h30v99h40v-139h-30v-75c0-11.028 8.972-20 20-20h51.461c6.786 0 13.442 2.335 18.741 6.574l101.782 81.426h23.371l44.051-164.75c3.503-13.101 15.421-22.25 28.982-22.25h77.612c11.028 0 20 8.972 20 20v127h-38v186h40z"/></svg>