<svg fill="#fff" viewBox="0 0 512 512" xmlns="http://www.w3.org/2000/svg"><path d="m436.949219 74.980469c-48.34375-48.351563-112.621094-74.980469-180.988281-74.980469-4.144532 0-7.5 3.359375-7.5 7.5s3.355468 7.5 7.5 7.5c64.359374 0 124.871093 25.066406 170.382812 70.585938 45.511719 45.519531 70.574219 106.042968 70.574219 170.414062s-25.0625 124.894531-70.574219 170.414062c-45.511719 45.519532-106.023438 70.585938-170.382812 70.585938-64.363282 0-124.875-25.066406-170.386719-70.585938-45.511719-45.519531-70.574219-106.039062-70.574219-170.414062 0-58.769531 21.386719-115.375 60.222656-159.390625 38.496094-43.628906 91.289063-71.863281 148.652344-79.492187 4.105469-.546876 6.992188-4.316407 6.445312-8.421876-.546874-4.105468-4.320312-6.988281-8.421874-6.449218-60.953126 8.109375-117.035157 38.097656-157.921876 84.4375-41.257812 46.757812-63.976562 106.890625-63.976562 169.316406 0 68.378906 26.625 132.667969 74.96875 181.019531 48.34375 48.351563 112.621094 74.980469 180.992188 74.980469 68.367187 0 132.644531-26.628906 180.988281-74.980469 48.34375-48.351562 74.96875-112.640625 74.96875-181.019531s-26.625-132.667969-74.96875-181.019531zm0 0"/><path d="m283.054688 234.675781c4.140624 0 7.5-3.355469 7.5-7.5v-83.640625c0-10.375-8.441407-18.816406-18.816407-18.816406h-31.558593c-10.375 0-18.816407 8.441406-18.816407 18.816406v142.886719c0 10.378906 8.441407 18.816406 18.816407 18.816406h31.558593c10.375 0 18.816407-8.4375 18.816407-18.816406v-28.203125c0-4.140625-3.359376-7.5-7.5-7.5-4.144532 0-7.5 3.359375-7.5 7.5v28.203125c0 2.105469-1.710938 3.816406-3.816407 3.816406h-31.558593c-2.105469 0-3.816407-1.710937-3.816407-3.816406v-142.886719c0-2.105468 1.710938-3.816406 3.816407-3.816406h31.558593c2.105469 0 3.816407 1.710938 3.816407 3.816406v83.640625c0 4.144531 3.355468 7.5 7.5 7.5zm0 0"/><path d="m255.960938 326.128906c-19.078126 0-34.597657 15.515625-34.597657 34.601563 0 19.074219 15.519531 34.59375 34.597657 34.59375 19.074218 0 34.59375-15.519531 34.59375-34.601563 0-19.078125-15.519532-34.59375-34.59375-34.59375zm0 54.195313c-10.804688 0-19.597657-8.789063-19.597657-19.601563 0-10.804687 8.792969-19.59375 19.597657-19.59375 10.800781 0 19.59375 8.789063 19.59375 19.601563 0 10.804687-8.792969 19.59375-19.59375 19.59375zm0 0"/></svg>