<svg id="Capa_1" enable-background="new 0 0 520 520" fill="#fff" height="512" viewBox="0 0 520 520" width="512" xmlns="http://www.w3.org/2000/svg"><g><path d="m460.821 112.251-103.334-107.639c-2.828-2.946-6.736-4.612-10.82-4.612h-180.834c-22.515 0-40.833 18.317-40.833 40.833v27.223h-29.167c-22.515 0-40.833 18.317-40.833 40.833v370.277c0 22.516 18.318 40.834 40.833 40.834h258.333c22.516 0 40.834-18.318 40.834-40.834v-27.222h29.167c22.516 0 40.833-18.317 40.833-40.833v-288.472c0-3.872-1.498-7.595-4.179-10.388zm-95.821 366.915c0 5.974-4.86 10.834-10.833 10.834h-258.334c-5.973 0-10.833-4.86-10.833-10.834v-370.277c0-5.974 4.86-10.833 10.833-10.833h29.167v313.056c0 22.516 18.318 40.833 40.833 40.833h199.167zm70-68.055c0 5.974-4.86 10.833-10.833 10.833h-44.167-214.167c-5.974 0-10.833-4.859-10.833-10.833v-328.055-42.223c0-5.974 4.86-10.833 10.833-10.833h174.44l94.727 98.674z"/><path d="m335.833 70.973c0-8.284-6.716-15-15-15s-15 6.716-15 15v77.5c0 8.284 6.716 15 15 15h77.5c8.284 0 15-6.716 15-15s-6.716-15-15-15h-62.5z"/></g></svg>