<svg height="512" fill="#fff" viewBox="0 0 512 512" width="512" xmlns="http://www.w3.org/2000/svg"><g id="_11-grade" data-name="11-grade"><path d="m464 28h-352a44.049 44.049 0 0 0 -44 44v348h-52a12 12 0 0 0 -12 12v32a44.049 44.049 0 0 0 44 44h352a44.049 44.049 0 0 0 44-44v-332h52a12 12 0 0 0 12-12v-48a44.049 44.049 0 0 0 -44-44zm-416 456a20.023 20.023 0 0 1 -20-20v-20h328v20a43.739 43.739 0 0 0 4.813 20zm372-20a20 20 0 0 1 -40 0v-32a12 12 0 0 0 -12-12h-276v-348a20.023 20.023 0 0 1 20-20h312.813a43.739 43.739 0 0 0 -4.813 20zm64-356h-40v-36a20 20 0 0 1 40 0z"/><path d="m256 164a116 116 0 1 0 116 116 116.132 116.132 0 0 0 -116-116zm0 208a92 92 0 1 1 92-92 92.1 92.1 0 0 1 -92 92z"/><path d="m255.174 220.424a44.05 44.05 0 0 0 -44 44v64a12 12 0 0 0 24 0v-20h40v20a12 12 0 0 0 24 0v-64a44.05 44.05 0 0 0 -44-44zm20 64h-40v-20a20 20 0 0 1 40 0z"/><path d="m385 108h-20v-20a12 12 0 0 0 -24 0v20h-20a12 12 0 0 0 0 24h20v20a12 12 0 0 0 24 0v-20h20a12 12 0 0 0 0-24z"/><path d="m128 100h160a12 12 0 0 0 0-24h-160a12 12 0 0 0 0 24z"/><path d="m212 136a12 12 0 0 0 -12-12h-72a12 12 0 0 0 0 24h72a12 12 0 0 0 12-12z"/></g></svg>