<svg id="Capa_1" enable-background="new 0 0 512 512" height="512" viewBox="0 0 512 512" width="512" xmlns="http://www.w3.org/2000/svg"><g><path d="m231.952 384.774h-160.323c-.285 0-.516-.231-.516-.517v-368.741c0-.285.231-.516.516-.516h206.475c.833 0 1.652.081 2.461.201v56.428c0 12.976 10.557 23.532 23.532 23.532h56.428c.12.81.201 1.628.201 2.461v166.394c0 4.142 3.358 7.5 7.5 7.5s7.5-3.358 7.5-7.5v-166.393c0-8.427-3.282-16.35-9.24-22.308l-66.075-66.075c-5.958-5.958-13.881-9.24-22.308-9.24h-206.474c-8.556 0-15.516 6.96-15.516 15.516v368.742c0 8.556 6.96 15.517 15.516 15.517h160.323c4.142 0 7.5-3.358 7.5-7.5 0-4.143-3.358-7.501-7.5-7.501zm63.612-359.168 54.555 54.555h-46.022c-4.705 0-8.532-3.827-8.532-8.532v-46.023z"/><path d="m411.821 447.871c10.818 0 20.206-7.33 22.829-17.825l21.013-84.049c.561-2.241.057-4.614-1.364-6.435s-3.602-2.884-5.912-2.884h-8.532v-24.565c0-4.142-3.358-7.5-7.5-7.5h-56.629v-8.532c0-4.142-3.358-7.5-7.5-7.5h-80.161c-4.142 0-7.5 3.358-7.5 7.5v48.097c0 4.142 3.358 7.5 7.5 7.5h150.717l-18.683 74.73c-.952 3.805-4.355 6.463-8.277 6.463h-119.256c-3.922 0-7.326-2.658-8.278-6.463l-25.992-103.971c-2.624-10.495-12.012-17.825-22.83-17.825h-19.547c-4.142 0-7.5 3.358-7.5 7.5s3.358 7.5 7.5 7.5h19.547c3.922 0 7.326 2.658 8.278 6.463l25.992 103.97c1.338 5.353 4.442 9.874 8.592 13.027l-11.189 22.377c-10.635 2.258-18.64 11.719-18.64 23.017 0 12.976 10.557 23.532 23.532 23.532s23.532-10.557 23.532-23.532c0-3.009-.574-5.885-1.608-8.532h108.458c-1.034 2.647-1.608 5.523-1.608 8.532 0 12.976 10.557 23.532 23.532 23.532s23.532-10.557 23.532-23.532-10.557-23.532-23.532-23.532h-140.17l8.532-17.064h119.122zm-51.095-111.193h-65.161v-33.097h65.161zm64.129 0h-49.129v-17.065h49.129zm-.516 143.258c4.705 0 8.532 3.828 8.532 8.532s-3.828 8.532-8.532 8.532-8.532-3.828-8.532-8.532 3.827-8.532 8.532-8.532zm-152.307 17.064c-4.705 0-8.532-3.828-8.532-8.532s3.828-8.532 8.532-8.532 8.532 3.828 8.532 8.532-3.827 8.532-8.532 8.532z"/><path d="m173.126 74.342c-2.929-2.929-7.678-2.929-10.606 0l-26.761 26.762-10.729-10.729c-2.929-2.929-7.678-2.929-10.606 0-2.929 2.929-2.929 7.678 0 10.607l16.033 16.032c1.464 1.464 3.384 2.197 5.303 2.197s3.839-.732 5.303-2.197l32.064-32.064c2.928-2.93 2.928-7.679-.001-10.608z"/><path d="m215.919 103.178h40.081c4.142 0 7.5-3.358 7.5-7.5 0-4.143-3.358-7.5-7.5-7.5h-40.081c-4.142 0-7.5 3.357-7.5 7.5 0 4.141 3.358 7.5 7.5 7.5z"/><path d="m173.126 146.487c-2.929-2.93-7.678-2.93-10.606 0l-26.761 26.761-10.729-10.729c-2.929-2.929-7.678-2.929-10.606 0-2.929 2.929-2.929 7.678 0 10.606l16.033 16.032c1.464 1.464 3.384 2.196 5.303 2.196s3.839-.732 5.303-2.196l32.064-32.064c2.928-2.928 2.928-7.677-.001-10.606z"/><path d="m320.129 160.322h-104.21c-4.142 0-7.5 3.358-7.5 7.5 0 4.143 3.358 7.5 7.5 7.5h104.209c4.142 0 7.5-3.357 7.5-7.5.001-4.141-3.357-7.5-7.499-7.5z"/><path d="m173.126 218.632c-2.929-2.929-7.678-2.929-10.606 0l-26.761 26.761-10.729-10.729c-2.929-2.929-7.678-2.929-10.606 0-2.929 2.929-2.929 7.678 0 10.607l16.033 16.032c1.464 1.464 3.384 2.196 5.303 2.196s3.839-.732 5.303-2.197l32.064-32.064c2.928-2.928 2.928-7.676-.001-10.606z"/><path d="m320.129 232.468h-104.21c-4.142 0-7.5 3.358-7.5 7.5s3.358 7.5 7.5 7.5h104.209c4.142 0 7.5-3.358 7.5-7.5s-3.357-7.5-7.499-7.5z"/><path d="m162.519 290.777-26.761 26.761-10.729-10.729c-2.929-2.929-7.678-2.929-10.606 0-2.929 2.929-2.929 7.678 0 10.606l16.033 16.032c1.464 1.465 3.384 2.197 5.303 2.197s3.839-.732 5.303-2.197l32.064-32.064c2.929-2.929 2.929-7.678 0-10.606-2.929-2.929-7.678-2.929-10.607 0z"/></g></svg>